<svg width="33" height="18" viewBox="0 0 33 18" fill="none" xmlns="http://www.w3.org/2000/svg">
<path fill-rule="evenodd" clip-rule="evenodd" d="M15.1262 0.473435C15.1141 0.484826 15.1021 0.496441 15.0903 0.50828C15.0785 0.520119 15.0668 0.532099 15.0554 0.544211L0.441742 15.1579C-0.147068 15.7467 -0.147068 16.7014 0.441742 17.2902C1.03055 17.879 1.9852 17.879 2.57401 17.2902L16.0912 3.773L29.6736 17.3554C30.2987 17.9806 31.3123 17.9806 31.9374 17.3554C32.5626 16.7303 32.5626 15.7167 31.9374 15.0916L17.3541 0.50828C17.343 0.497208 17.3318 0.486333 17.3205 0.475651C17.3102 0.464665 17.2996 0.453797 17.2889 0.443049C16.7001 -0.145761 15.7454 -0.145761 15.1566 0.443049L15.1262 0.473435Z" fill="white"/>
</svg>
