<svg width="33" height="18" viewBox="0 0 33 18" fill="none" xmlns="http://www.w3.org/2000/svg">
<path fill-rule="evenodd" clip-rule="evenodd" d="M17.2801 17.3508C17.2922 17.3394 17.3041 17.3278 17.316 17.316C17.3278 17.3041 17.3394 17.2922 17.3508 17.2801L31.9645 2.66635C32.5533 2.07754 32.5533 1.12289 31.9645 0.53408C31.3757 -0.0547305 30.4211 -0.0547307 29.8323 0.534079L16.3151 14.0513L2.73267 0.468852C2.10753 -0.156284 1.09399 -0.156284 0.468852 0.468852C-0.156284 1.09399 -0.156284 2.10753 0.468852 2.73267L15.0522 17.316C15.0632 17.3271 15.0744 17.3379 15.0858 17.3486C15.0961 17.3596 15.1067 17.3705 15.1174 17.3812C15.7062 17.97 16.6609 17.97 17.2497 17.3812L17.2801 17.3508Z" fill="white"/>
</svg>
