<svg width="895" height="484" viewBox="0 0 281 147" fill="none" xmlns="http://www.w3.org/2000/svg">
<path d="M3.16873 121.197H0.00195312V74.25H4.98962L22.1694 117.239L39.2699 74.25H44.2576V121.197H41.0908V77.8918L23.5944 121.197H20.6651L3.16873 77.8918V121.197Z" fill="white"/>
<path d="M52.3313 121.197H48.7687L67.3735 74.25H71.3319L89.6992 121.197H86.0574L80.0406 106.155H58.3482L52.3313 121.197ZM59.2982 103.147H78.853L69.1944 77.8918L59.2982 103.147Z" fill="white"/>
<path d="M97.2745 121.197H94.1077V74.25H116.513C119.732 74.25 122.477 75.464 124.746 77.8918C127.016 80.2669 128.151 83.1698 128.151 86.6005C128.151 89.6089 127.464 92.2215 126.092 94.4382C124.667 96.655 122.899 97.9481 120.788 98.3175C122.741 98.8453 124.324 100.508 125.538 103.305C126.752 106.102 127.359 109.48 127.359 113.439C127.359 115.656 127.412 117.318 127.517 118.427C127.623 119.746 127.834 120.67 128.151 121.197H124.984C124.456 120.564 124.113 119.403 123.955 117.714L123.717 110.985C123.717 107.818 122.952 105.1 121.421 102.83C119.943 100.613 118.122 99.505 115.958 99.505H97.2745V121.197ZM97.2745 96.5758H115.958C118.439 96.5758 120.577 95.6258 122.371 93.7257C124.113 91.8784 124.984 89.6089 124.984 86.9171C124.984 84.2782 124.113 82.0086 122.371 80.1086C120.577 78.2613 118.439 77.3376 115.958 77.3376H97.2745V96.5758Z" fill="white"/>
<path d="M138.384 121.197H135.217V74.25H138.384V100.138L165.776 74.25H169.814L149.626 93.8049L170.685 121.197H166.805L147.251 95.9424L138.384 104.018V121.197Z" fill="white"/>
<path d="M205.595 121.197H174.957V74.25H205.595V77.3376H178.124V95.3882H203.22V98.3175H178.124V118.189H205.595V121.197Z" fill="white"/>
<path d="M224.766 121.197H221.599V77.3376H205.528V74.25H240.996V77.3376H224.766V121.197Z" fill="white"/>
<path d="M258.402 122.385C253.863 122.385 250.01 120.854 246.843 117.793C243.623 114.785 242.013 111.117 242.013 106.789H245.18C245.18 110.272 246.473 113.254 249.06 115.735C251.646 118.215 254.76 119.456 258.402 119.456C262.36 119.456 265.764 118.4 268.614 116.289C271.412 114.178 272.81 111.618 272.81 108.61C272.81 106.023 271.57 103.859 269.089 102.118C266.662 100.376 263.389 99.3203 259.272 98.9509C254.258 98.5286 250.247 97.1036 247.239 94.6757C244.23 92.2479 242.726 89.2658 242.726 85.7296C242.726 82.2461 244.257 79.2641 247.318 76.7835C250.379 74.3028 254.074 73.0625 258.402 73.0625C263.046 73.0625 267.031 74.3556 270.356 76.9418C273.628 79.528 275.265 82.642 275.265 86.2838H272.098C272.098 83.4865 270.752 81.085 268.06 79.0794C265.421 77.0737 262.202 76.0709 258.402 76.0709C254.971 76.0709 252.015 77.021 249.535 78.921C247.107 80.7683 245.893 83.0378 245.893 85.7296C245.893 88.3686 247.16 90.5853 249.693 92.3798C252.279 94.1743 255.683 95.2563 259.906 95.6257C264.761 96.048 268.667 97.4466 271.623 99.8217C274.526 102.197 275.977 105.126 275.977 108.61C275.977 112.41 274.262 115.656 270.831 118.347C267.4 121.039 263.257 122.385 258.402 122.385Z" fill="white"/>
<path d="M0.300781 133.45H3.92786C5.562 133.45 6.75595 133.707 7.50971 134.219C8.26949 134.732 8.64939 135.549 8.64939 136.67C8.64939 137.177 8.54989 137.638 8.3509 138.054C8.15794 138.47 7.86849 138.82 7.48257 139.103C7.10268 139.381 6.63233 139.571 6.07154 139.673V139.737C6.74087 139.839 7.29262 140.026 7.72679 140.297C8.16698 140.563 8.4926 140.915 8.70366 141.356C8.92074 141.79 9.02928 142.308 9.02928 142.911C9.02928 143.78 8.83029 144.491 8.4323 145.046C8.04035 145.601 7.49463 146.011 6.79514 146.276C6.09566 146.541 5.28763 146.674 4.37106 146.674H0.300781V133.45ZM1.23242 139.33H4.16303C5.40522 139.33 6.3037 139.112 6.85846 138.678C7.41323 138.244 7.69061 137.602 7.69061 136.752C7.69061 135.871 7.39212 135.238 6.79514 134.852C6.19817 134.466 5.24241 134.273 3.92786 134.273H1.23242V139.33ZM1.23242 140.144V145.851H4.34393C5.56803 145.851 6.49063 145.604 7.11172 145.109C7.73282 144.609 8.04337 143.864 8.04337 142.875C8.04337 142.224 7.89864 141.699 7.6092 141.301C7.31976 140.897 6.8856 140.605 6.30671 140.424C5.73386 140.237 5.01929 140.144 4.16303 140.144H1.23242Z" fill="white"/>
<path d="M21.6562 133.45V142.007C21.6562 143.038 21.4572 143.915 21.0592 144.639C20.6612 145.357 20.0884 145.905 19.3407 146.285C18.599 146.665 17.7095 146.855 16.6724 146.855C15.0985 146.855 13.8895 146.43 13.0453 145.58C12.2011 144.723 11.779 143.52 11.779 141.971V133.45H12.7016V141.971C12.7016 143.297 13.0453 144.307 13.7327 145.001C14.4262 145.688 15.4211 146.032 16.7176 146.032C17.5678 146.032 18.2914 145.881 18.8884 145.58C19.4854 145.272 19.9407 144.826 20.2542 144.241C20.5678 143.65 20.7246 142.935 20.7246 142.097V133.45H21.6562Z" fill="white"/>
<path d="M25.2471 146.674V133.45H26.1787V146.674H25.2471Z" fill="white"/>
<path d="M29.9144 146.674V133.45H30.846V145.824H37.1414V146.674H29.9144Z" fill="white"/>
<path d="M42.8669 146.674H41.9262V134.291H37.6388V133.45H47.1543V134.291H42.8669V146.674Z" fill="white"/>
<path d="M63.6796 133.45V142.007C63.6796 143.038 63.4806 143.915 63.0826 144.639C62.6847 145.357 62.1118 145.905 61.3641 146.285C60.6224 146.665 59.7329 146.855 58.6958 146.855C57.1219 146.855 55.9129 146.43 55.0687 145.58C54.2245 144.723 53.8024 143.52 53.8024 141.971V133.45H54.725V141.971C54.725 143.297 55.0687 144.307 55.7561 145.001C56.4496 145.688 57.4445 146.032 58.741 146.032C59.5912 146.032 60.3148 145.881 60.9118 145.58C61.5088 145.272 61.9641 144.826 62.2776 144.241C62.5912 143.65 62.748 142.935 62.748 142.097V133.45H63.6796Z" fill="white"/>
<path d="M74.5518 143.264C74.5518 144.054 74.3528 144.717 73.9548 145.254C73.5568 145.785 73.0171 146.186 72.3358 146.457C71.6544 146.722 70.8825 146.855 70.0202 146.855C69.4835 146.855 68.9951 146.828 68.5549 146.774C68.1207 146.725 67.7258 146.659 67.37 146.575C67.0203 146.49 66.7007 146.394 66.4112 146.285V145.354C66.8816 145.534 67.4243 145.694 68.0393 145.833C68.6604 145.966 69.3358 146.032 70.0654 146.032C70.7529 146.032 71.3619 145.932 71.8925 145.733C72.4292 145.534 72.8513 145.233 73.1589 144.829C73.4664 144.425 73.6202 143.915 73.6202 143.3C73.6202 142.758 73.4905 142.314 73.2312 141.971C72.9779 141.621 72.595 141.322 72.0825 141.075C71.5699 140.822 70.9247 140.566 70.1468 140.306C69.6041 140.119 69.1097 139.923 68.6635 139.718C68.2233 139.507 67.8464 139.266 67.5328 138.995C67.2193 138.717 66.9781 138.386 66.8092 138C66.6464 137.608 66.565 137.147 66.565 136.616C66.565 135.886 66.7489 135.274 67.1167 134.78C67.4906 134.279 67.9941 133.902 68.6273 133.649C69.2665 133.39 69.984 133.26 70.78 133.26C71.4132 133.26 72.0131 133.321 72.58 133.441C73.1528 133.556 73.7046 133.731 74.2352 133.966L73.9096 134.771C73.379 134.542 72.8483 134.373 72.3177 134.264C71.787 134.156 71.2624 134.101 70.7438 134.101C70.1227 134.101 69.568 134.195 69.0795 134.382C68.5971 134.563 68.2142 134.837 67.9308 135.205C67.6474 135.573 67.5057 136.037 67.5057 136.598C67.5057 137.177 67.6353 137.644 67.8946 138C68.1599 138.356 68.5338 138.651 69.0162 138.886C69.5046 139.121 70.0805 139.351 70.7438 139.574C71.5277 139.839 72.2031 140.119 72.7699 140.415C73.3367 140.704 73.7739 141.072 74.0814 141.518C74.395 141.965 74.5518 142.547 74.5518 143.264Z" fill="white"/>
<path d="M77.3829 146.674V133.45H78.3145V146.674H77.3829Z" fill="white"/>
<path d="M91.6741 146.674H90.7244L82.9094 134.979H82.8642C82.8763 135.304 82.8853 135.636 82.8914 135.974C82.9034 136.305 82.9125 136.649 82.9185 137.005C82.9306 137.355 82.9366 137.716 82.9366 138.09V146.674H82.0502V133.45H83.0089L90.7967 145.109H90.842C90.8359 144.844 90.8269 144.536 90.8148 144.187C90.8088 143.837 90.7998 143.478 90.7877 143.11C90.7817 142.743 90.7787 142.396 90.7787 142.07V133.45H91.6741V146.674Z" fill="white"/>
<path d="M100.638 139.999H105.495V146.068C104.862 146.333 104.186 146.532 103.469 146.665C102.751 146.792 101.989 146.855 101.18 146.855C99.7755 146.855 98.5906 146.59 97.6258 146.059C96.667 145.522 95.9404 144.748 95.4459 143.734C94.9515 142.721 94.7042 141.503 94.7042 140.08C94.7042 138.754 94.9726 137.575 95.5092 136.544C96.0519 135.513 96.8268 134.704 97.8338 134.12C98.8408 133.535 100.047 133.242 101.452 133.242C102.175 133.242 102.857 133.309 103.496 133.441C104.141 133.574 104.753 133.773 105.332 134.038L104.961 134.87C104.388 134.605 103.804 134.406 103.207 134.273C102.616 134.141 102.016 134.074 101.407 134.074C100.213 134.074 99.1845 134.331 98.3223 134.843C97.466 135.35 96.8087 136.055 96.3504 136.96C95.8982 137.858 95.672 138.895 95.672 140.071C95.672 141.404 95.8921 142.51 96.3323 143.391C96.7725 144.271 97.4147 144.931 98.2589 145.372C99.1092 145.812 100.14 146.032 101.352 146.032C102.016 146.032 102.61 145.984 103.134 145.887C103.665 145.791 104.144 145.664 104.572 145.507V140.849H100.638V139.999Z" fill="white"/>
<path d="M118.538 146.674H115.734V135.784H112.143V133.45H122.129V135.784H118.538V146.674Z" fill="white"/>
<path d="M135 146.674H132.205V140.967H126.968V146.674H124.164V133.45H126.968V138.633H132.205V133.45H135V146.674Z" fill="white"/>
<path d="M146.442 146.674L145.483 143.526H140.662L139.703 146.674H136.682L141.35 133.396H144.778L149.463 146.674H146.442ZM144.814 141.175L143.855 138.099C143.795 137.894 143.713 137.632 143.611 137.312C143.514 136.987 143.415 136.658 143.312 136.327C143.216 135.989 143.138 135.696 143.077 135.449C143.017 135.696 142.933 136.004 142.824 136.372C142.722 136.734 142.622 137.077 142.526 137.403C142.429 137.729 142.36 137.961 142.317 138.099L141.368 141.175H144.814Z" fill="white"/>
<path d="M151.136 146.674V133.45H153.94V144.359H159.304V146.674H151.136Z" fill="white"/>
<path d="M169.227 146.674H161.611V133.45H169.227V135.748H164.415V138.651H168.892V140.949H164.415V144.359H169.227V146.674Z" fill="white"/>
<path d="M179.8 143.002C179.8 143.786 179.61 144.467 179.23 145.046C178.851 145.625 178.296 146.071 177.566 146.385C176.843 146.698 175.962 146.855 174.925 146.855C174.467 146.855 174.017 146.825 173.577 146.765C173.143 146.704 172.724 146.617 172.32 146.502C171.922 146.382 171.542 146.234 171.18 146.059V143.454C171.807 143.731 172.459 143.982 173.134 144.205C173.809 144.428 174.479 144.539 175.142 144.539C175.6 144.539 175.968 144.479 176.246 144.359C176.529 144.238 176.734 144.072 176.861 143.861C176.987 143.65 177.051 143.409 177.051 143.137C177.051 142.806 176.939 142.522 176.716 142.287C176.493 142.052 176.185 141.832 175.793 141.627C175.407 141.422 174.97 141.202 174.482 140.967C174.174 140.822 173.84 140.647 173.478 140.442C173.116 140.231 172.772 139.975 172.447 139.673C172.121 139.372 171.853 139.007 171.642 138.579C171.437 138.145 171.334 137.626 171.334 137.023C171.334 136.233 171.515 135.558 171.877 134.997C172.239 134.436 172.754 134.008 173.424 133.713C174.099 133.411 174.895 133.26 175.811 133.26C176.499 133.26 177.153 133.342 177.774 133.504C178.401 133.661 179.056 133.89 179.737 134.192L178.832 136.372C178.223 136.125 177.678 135.935 177.195 135.802C176.713 135.663 176.221 135.594 175.721 135.594C175.371 135.594 175.073 135.651 174.825 135.766C174.578 135.874 174.391 136.031 174.265 136.236C174.138 136.435 174.075 136.667 174.075 136.933C174.075 137.246 174.165 137.511 174.346 137.729C174.533 137.94 174.81 138.145 175.178 138.344C175.552 138.543 176.016 138.775 176.571 139.04C177.247 139.36 177.822 139.694 178.299 140.044C178.781 140.388 179.152 140.795 179.411 141.265C179.671 141.729 179.8 142.308 179.8 143.002Z" fill="white"/>
<path d="M190.455 133.45C192.029 133.45 193.208 133.752 193.992 134.355C194.776 134.958 195.168 135.895 195.168 137.168C195.168 137.819 195.062 138.398 194.851 138.904C194.646 139.405 194.336 139.827 193.92 140.171C193.504 140.514 192.982 140.774 192.355 140.949C191.734 141.123 191.007 141.211 190.175 141.211H188.14V146.674H187.208V133.45H190.455ZM190.356 134.273H188.14V140.388H190.085C190.941 140.388 191.676 140.291 192.292 140.098C192.907 139.899 193.38 139.568 193.712 139.103C194.043 138.639 194.209 138.006 194.209 137.204C194.209 136.185 193.896 135.443 193.268 134.979C192.641 134.508 191.67 134.273 190.356 134.273Z" fill="white"/>
<path d="M201.255 133.45C202.304 133.45 203.179 133.565 203.878 133.794C204.584 134.023 205.114 134.4 205.47 134.925C205.826 135.449 206.004 136.158 206.004 137.05C206.004 137.719 205.88 138.295 205.633 138.778C205.392 139.254 205.057 139.646 204.629 139.954C204.201 140.261 203.706 140.496 203.146 140.659L206.773 146.674H205.669L202.259 140.921H198.976V146.674H198.044V133.45H201.255ZM201.165 134.273H198.976V140.098H201.608C202.687 140.098 203.529 139.839 204.132 139.32C204.741 138.802 205.045 138.057 205.045 137.086C205.045 136.019 204.725 135.283 204.086 134.879C203.447 134.475 202.473 134.273 201.165 134.273Z" fill="white"/>
<path d="M220.187 140.044C220.187 141.051 220.063 141.971 219.816 142.803C219.568 143.635 219.198 144.353 218.703 144.956C218.209 145.559 217.591 146.026 216.849 146.358C216.113 146.689 215.254 146.855 214.271 146.855C213.282 146.855 212.417 146.689 211.675 146.358C210.933 146.026 210.315 145.559 209.821 144.956C209.332 144.347 208.965 143.626 208.717 142.794C208.47 141.956 208.347 141.033 208.347 140.026C208.347 138.687 208.573 137.508 209.025 136.489C209.483 135.47 210.156 134.674 211.042 134.101C211.934 133.529 213.035 133.242 214.343 133.242C215.598 133.242 216.659 133.517 217.527 134.065C218.402 134.608 219.062 135.389 219.508 136.408C219.96 137.421 220.187 138.633 220.187 140.044ZM209.323 140.035C209.323 141.217 209.501 142.26 209.857 143.165C210.213 144.063 210.759 144.766 211.494 145.272C212.23 145.779 213.159 146.032 214.28 146.032C215.414 146.032 216.345 145.782 217.075 145.281C217.805 144.781 218.344 144.081 218.694 143.183C219.044 142.284 219.219 141.238 219.219 140.044C219.219 138.157 218.806 136.691 217.98 135.648C217.159 134.605 215.947 134.083 214.343 134.083C213.216 134.083 212.278 134.334 211.53 134.834C210.789 135.335 210.234 136.031 209.866 136.924C209.504 137.816 209.323 138.853 209.323 140.035Z" fill="white"/>
<path d="M226.681 146.674H225.74V134.291H221.453V133.45H230.968V134.291H226.681V146.674Z" fill="white"/>
<path d="M244.066 140.044C244.066 141.051 243.942 141.971 243.695 142.803C243.447 143.635 243.077 144.353 242.582 144.956C242.088 145.559 241.47 146.026 240.728 146.358C239.992 146.689 239.133 146.855 238.15 146.855C237.161 146.855 236.296 146.689 235.554 146.358C234.812 146.026 234.194 145.559 233.7 144.956C233.211 144.347 232.844 143.626 232.596 142.794C232.349 141.956 232.226 141.033 232.226 140.026C232.226 138.687 232.452 137.508 232.904 136.489C233.362 135.47 234.035 134.674 234.921 134.101C235.813 133.529 236.914 133.242 238.222 133.242C239.477 133.242 240.538 133.517 241.406 134.065C242.281 134.608 242.941 135.389 243.387 136.408C243.839 137.421 244.066 138.633 244.066 140.044ZM233.202 140.035C233.202 141.217 233.38 142.26 233.736 143.165C234.092 144.063 234.638 144.766 235.373 145.272C236.109 145.779 237.037 146.032 238.159 146.032C239.293 146.032 240.224 145.782 240.954 145.281C241.684 144.781 242.223 144.081 242.573 143.183C242.923 142.284 243.098 141.238 243.098 140.044C243.098 138.157 242.685 136.691 241.859 135.648C241.038 134.605 239.826 134.083 238.222 134.083C237.095 134.083 236.157 134.334 235.409 134.834C234.668 135.335 234.113 136.031 233.745 136.924C233.383 137.816 233.202 138.853 233.202 140.035Z" fill="white"/>
<path d="M252.722 134.101C251.877 134.101 251.124 134.246 250.46 134.536C249.797 134.819 249.236 135.223 248.778 135.748C248.32 136.272 247.97 136.899 247.729 137.629C247.488 138.353 247.367 139.152 247.367 140.026C247.367 141.232 247.557 142.287 247.937 143.192C248.317 144.09 248.887 144.787 249.646 145.281C250.412 145.776 251.365 146.023 252.505 146.023C253.168 146.023 253.771 145.975 254.314 145.878C254.856 145.776 255.36 145.646 255.824 145.489V146.303C255.384 146.466 254.886 146.599 254.332 146.701C253.783 146.804 253.144 146.855 252.414 146.855C251.094 146.855 249.984 146.572 249.086 146.005C248.193 145.438 247.521 144.642 247.068 143.617C246.616 142.592 246.39 141.395 246.39 140.026C246.39 139.043 246.532 138.142 246.815 137.322C247.099 136.495 247.512 135.781 248.054 135.178C248.603 134.569 249.269 134.098 250.053 133.767C250.837 133.429 251.73 133.26 252.731 133.26C253.364 133.26 253.967 133.324 254.54 133.45C255.119 133.571 255.661 133.749 256.168 133.984L255.806 134.798C255.318 134.557 254.817 134.382 254.305 134.273C253.792 134.159 253.264 134.101 252.722 134.101Z" fill="white"/>
<path d="M269.735 140.044C269.735 141.051 269.612 141.971 269.365 142.803C269.117 143.635 268.747 144.353 268.252 144.956C267.758 145.559 267.139 146.026 266.398 146.358C265.662 146.689 264.803 146.855 263.82 146.855C262.831 146.855 261.966 146.689 261.224 146.358C260.482 146.026 259.864 145.559 259.37 144.956C258.881 144.347 258.514 143.626 258.266 142.794C258.019 141.956 257.895 141.033 257.895 140.026C257.895 138.687 258.122 137.508 258.574 136.489C259.032 135.47 259.704 134.674 260.591 134.101C261.483 133.529 262.584 133.242 263.892 133.242C265.147 133.242 266.208 133.517 267.076 134.065C267.951 134.608 268.611 135.389 269.057 136.408C269.509 137.421 269.735 138.633 269.735 140.044ZM258.872 140.035C258.872 141.217 259.05 142.26 259.406 143.165C259.762 144.063 260.307 144.766 261.043 145.272C261.779 145.779 262.707 146.032 263.829 146.032C264.963 146.032 265.894 145.782 266.624 145.281C267.354 144.781 267.893 144.081 268.243 143.183C268.593 142.284 268.768 141.238 268.768 140.044C268.768 138.157 268.355 136.691 267.528 135.648C266.708 134.605 265.496 134.083 263.892 134.083C262.765 134.083 261.827 134.334 261.079 134.834C260.338 135.335 259.783 136.031 259.415 136.924C259.053 137.816 258.872 138.853 258.872 140.035Z" fill="white"/>
<path d="M272.775 146.674V133.45H273.706V145.824H280.002V146.674H272.775Z" fill="white"/>
<path fill-rule="evenodd" clip-rule="evenodd" d="M142.892 0L151.487 6.26799L143.579 17.1122C147.853 21.831 150.456 28.091 150.456 34.9589C150.456 49.6468 138.549 61.5537 123.861 61.5537C119.95 61.5537 116.236 60.7094 112.892 59.1931L104.846 70.2259L96.251 63.958L104.277 52.9519C99.9242 48.2165 97.2666 41.8981 97.2666 34.9589C97.2666 20.271 109.173 8.36416 123.861 8.36416C127.843 8.36416 131.62 9.23906 135.011 10.8071L142.892 0ZM123.727 20.0067C125.167 20.0067 126.56 20.2088 127.88 20.5861L111.2 43.4585C109.593 41.062 108.656 38.179 108.656 35.0771C108.656 26.7539 115.404 20.0067 123.727 20.0067ZM136.413 26.9389L119.854 49.6453C121.09 49.9729 122.388 50.1474 123.727 50.1474C132.05 50.1474 138.797 43.4002 138.797 35.0771C138.797 32.0794 137.922 29.2861 136.413 26.9389ZM253.655 61.8039C262.813 61.8039 270.889 57.1755 275.673 50.1303L266.059 43.6902C263.357 47.7343 258.75 50.3976 253.521 50.3976C245.197 50.3976 238.45 43.6504 238.45 35.3273C238.45 27.0041 245.197 20.2569 253.521 20.2569C258.703 20.2569 263.275 22.8728 265.987 26.8563L275.553 20.1123C270.754 13.1659 262.736 8.61434 253.655 8.61434C238.967 8.61434 227.06 20.5212 227.06 35.2091C227.06 49.897 238.967 61.8039 253.655 61.8039ZM0.257671 9.36543H0V60.782H0.00438644L0.00438644 60.7928H40.0232V50.1549H10.6379V40.2795H40.0232V29.6416L10.6379 29.6416V20.0033L40.0232 20.0033V9.36543H10.6379H0.257671ZM180.368 18.8192H187.617L197.972 9.40558H154.669V18.8192H169.73V60.8232H180.368V18.8192ZM64.0772 35.3024L44.8533 9.36685H58.0948L70.6441 26.2974L82.9905 9.36685H96.1566L77.2807 35.2511L96.1939 60.7674H82.9523L70.7139 44.2561L58.6731 60.7674H45.507L64.0772 35.3024ZM220.046 9.4091H209.408V9.41581L209.404 9.41581L190.155 26.128L197.132 34.1577L209.408 23.4808V60.8257H220.046V9.4091Z" fill="white"/>
</svg>
