<svg width="897" height="487" viewBox="0 0 897 487" fill="none" xmlns="http://www.w3.org/2000/svg">
<rect x="652.328" y="31.7188" width="36.0025" height="174.012" fill="white"/>
<path fill-rule="evenodd" clip-rule="evenodd" d="M135.438 31.7188V67.7213L36.0025 67.7213V100.295L135.438 100.295V136.297L36.0025 136.297V169.728H135.438V205.731L36.0025 205.731H0V169.728V31.7188L0.857193 31.7188L36.0025 31.7188H135.438Z" fill="white"/>
<path fill-rule="evenodd" clip-rule="evenodd" d="M882.004 169.646C865.814 193.493 838.478 209.161 807.483 209.161C757.774 209.161 717.477 168.864 717.477 119.155C717.477 69.4456 757.774 29.1484 807.483 29.1484C838.218 29.1484 865.356 44.5543 881.594 68.0653L849.224 90.8859C840.043 77.4205 824.581 68.5797 807.054 68.5797C778.886 68.5797 756.051 91.4148 756.051 119.583C756.051 147.752 778.886 170.587 807.054 170.587C824.758 170.587 840.355 161.567 849.5 147.872L882.004 169.646Z" fill="white"/>
<path fill-rule="evenodd" clip-rule="evenodd" d="M216.829 119.551L151.727 31.7188H196.541L239.054 89.0743L280.88 31.7188H325.439L261.515 119.377L325.522 205.731H280.708L239.29 149.853L198.542 205.731H153.983L216.829 119.551Z" fill="white"/>
<path fill-rule="evenodd" clip-rule="evenodd" d="M512.673 21.2131L483.584 0L456.92 36.5637C445.439 31.2521 432.651 28.2882 419.17 28.2882C369.46 28.2882 329.163 68.5854 329.163 118.294C329.163 141.786 338.163 163.175 352.902 179.203L325.734 216.457L354.824 237.67L382.061 200.319C393.376 205.446 405.939 208.301 419.17 208.301C468.879 208.301 509.176 168.004 509.176 118.294C509.176 95.0574 500.37 73.877 485.913 57.9083L512.673 21.2131ZM432.774 69.6745C428.316 68.4013 423.608 67.7196 418.741 67.7196C390.572 67.7196 367.737 90.5546 367.737 118.723C367.737 129.213 370.904 138.963 376.334 147.07L432.774 69.6745ZM405.614 168.021L461.664 91.1616C466.778 99.1094 469.744 108.57 469.744 118.723C469.744 146.892 446.909 169.727 418.741 169.727C414.202 169.727 409.802 169.134 405.614 168.021Z" fill="white"/>
<path fill-rule="evenodd" clip-rule="evenodd" d="M614.604 31.7385L614.604 31.7188L578.608 31.7237L513.461 88.2838L537.076 115.459L578.602 79.3408V205.751H614.604V31.7385H614.604Z" fill="white"/>
<path d="M10.1215 401.581H0V251.53H15.9414L70.8506 388.93L125.507 251.53H141.448V401.581H131.327V263.17L75.4053 401.581H66.0429L10.1215 263.17V401.581Z" fill="white"/>
<path d="M167.253 401.581H155.866L215.33 251.53H227.982L286.687 401.581H275.047L255.816 353.504H186.484L167.253 401.581ZM189.52 343.889H252.021L221.15 263.17L189.52 343.889Z" fill="white"/>
<path d="M310.899 401.581H300.777V251.53H372.387C382.677 251.53 391.449 255.41 398.703 263.17C405.957 270.761 409.583 280.039 409.583 291.004C409.583 300.619 407.39 308.97 403.004 316.055C398.45 323.14 392.799 327.273 386.051 328.453C392.293 330.14 397.353 335.454 401.233 344.395C405.113 353.336 407.053 364.132 407.053 376.784C407.053 383.869 407.222 389.183 407.559 392.725C407.897 396.942 408.571 399.894 409.583 401.581H399.462C397.775 399.557 396.679 395.846 396.172 390.448L395.413 368.94C395.413 358.818 392.967 350.13 388.075 342.877C383.352 335.792 377.532 332.249 370.616 332.249H310.899V401.581ZM310.899 322.887H370.616C378.544 322.887 385.376 319.85 391.112 313.777C396.679 307.873 399.462 300.619 399.462 292.016C399.462 283.581 396.679 276.328 391.112 270.255C385.376 264.351 378.544 261.398 370.616 261.398H310.899V322.887Z" fill="white"/>
<path d="M442.29 401.581H432.169V251.53H442.29V334.273L529.841 251.53H542.746L478.222 314.03L545.53 401.581H533.131L470.63 320.862L442.29 346.672V401.581Z" fill="white"/>
<path d="M657.11 401.581H559.184V251.53H657.11V261.398H569.306V319.091H649.519V328.453H569.306V391.966H657.11V401.581Z" fill="white"/>
<path d="M718.382 401.581H708.26V261.398H656.894V251.53H770.255V261.398H718.382V401.581Z" fill="white"/>
<path d="M825.887 405.377C811.379 405.377 799.065 400.485 788.943 390.701C778.653 381.085 773.508 369.361 773.508 355.529H783.629C783.629 366.662 787.762 376.193 796.028 384.122C804.294 392.05 814.247 396.015 825.887 396.015C838.539 396.015 849.419 392.641 858.529 385.893C867.469 379.145 871.94 370.964 871.94 361.348C871.94 353.082 867.975 346.166 860.047 340.599C852.287 335.032 841.828 331.659 828.67 330.478C812.645 329.128 799.824 324.574 790.208 316.814C780.593 309.054 775.785 299.523 775.785 288.22C775.785 277.087 780.677 267.556 790.461 259.627C800.246 251.699 812.054 247.734 825.887 247.734C840.732 247.734 853.468 251.867 864.096 260.133C874.554 268.399 879.784 278.352 879.784 289.992H869.662C869.662 281.051 865.361 273.376 856.757 266.965C848.323 260.555 838.033 257.35 825.887 257.35C814.922 257.35 805.475 260.386 797.547 266.459C789.787 272.363 785.907 279.617 785.907 288.22C785.907 296.655 789.955 303.74 798.053 309.476C806.319 315.211 817.199 318.669 830.695 319.85C846.214 321.2 858.697 325.67 868.144 333.261C877.422 340.852 882.061 350.215 882.061 361.348C882.061 373.494 876.579 383.869 865.614 392.472C854.649 401.075 841.406 405.377 825.887 405.377Z" fill="white"/>
<path d="M0.382812 485.141V441.883H20.5162C23.1423 441.883 25.4036 442.88 27.3003 444.874C29.1483 446.917 30.0723 449.348 30.0723 452.169C30.0723 454.844 29.513 457.154 28.3945 459.099C27.3246 461.044 25.9386 462.163 24.2365 462.454C26.4735 462.843 28.3458 464.035 29.8534 466.029C31.3124 468.023 32.0418 470.333 32.0418 472.959C32.0418 476.314 30.9233 479.184 28.6863 481.566C26.4006 483.949 23.6772 485.141 20.5162 485.141H0.382812ZM3.30069 482.369H19.9326C22.4615 482.369 24.6255 481.445 26.4249 479.597C28.2243 477.749 29.1239 475.536 29.1239 472.959C29.1239 470.479 28.2243 468.387 26.4249 466.685C24.6255 464.935 22.4615 464.059 19.9326 464.059H3.30069V482.369ZM3.30069 461.36H19.9326C21.9265 461.36 23.6286 460.46 25.0389 458.661C26.4492 456.862 27.1544 454.698 27.1544 452.169C27.1544 450.126 26.4492 448.376 25.0389 446.917C23.6286 445.458 21.9265 444.728 19.9326 444.728H3.30069V461.36Z" fill="white"/>
<path d="M53.1679 486.235C48.6939 486.235 44.852 484.776 41.6423 481.858C38.4813 478.94 36.9008 475.415 36.9008 471.281V441.883H39.8186V471.281C39.8186 474.685 41.1317 477.579 43.7578 479.962C46.3352 482.345 49.472 483.536 53.1679 483.536C56.6694 483.536 59.6845 482.345 62.2134 479.962C64.6936 477.579 65.9337 474.685 65.9337 471.281V441.883H68.8516V471.281C68.8516 475.415 67.3197 478.94 64.2559 481.858C61.1921 484.776 57.4961 486.235 53.1679 486.235Z" fill="white"/>
<path d="M79.2292 485.141H76.3113V441.883H79.2292V485.141Z" fill="white"/>
<path d="M87.4089 485.141V441.883H90.3268V482.369H113.597V485.141H87.4089Z" fill="white"/>
<path d="M117.373 485.141V441.883H134.516C139.087 441.883 143.002 443.95 146.26 448.084C149.47 452.169 151.075 457.129 151.075 462.965C151.075 469.093 149.47 474.32 146.26 478.649C143.002 482.977 139.087 485.141 134.516 485.141H117.373ZM120.291 482.369H134.516C138.261 482.369 141.47 480.472 144.145 476.679C146.82 472.886 148.157 468.314 148.157 462.965C148.157 457.907 146.82 453.603 144.145 450.053C141.47 446.503 138.261 444.728 134.516 444.728H120.291V482.369Z" fill="white"/>
<path d="M194.446 486.235C189.972 486.235 186.13 484.776 182.92 481.858C179.759 478.94 178.179 475.415 178.179 471.281V441.883H181.096V471.281C181.096 474.685 182.409 477.579 185.036 479.962C187.613 482.345 190.75 483.536 194.446 483.536C197.947 483.536 200.962 482.345 203.491 479.962C205.971 477.579 207.211 474.685 207.211 471.281V441.883H210.129V471.281C210.129 475.415 208.597 478.94 205.534 481.858C202.47 484.776 198.774 486.235 194.446 486.235Z" fill="white"/>
<path d="M229.844 486.235C225.662 486.235 222.112 484.825 219.194 482.004C216.227 479.232 214.744 475.852 214.744 471.865H217.662C217.662 475.074 218.853 477.822 221.236 480.108C223.619 482.393 226.489 483.536 229.844 483.536C233.492 483.536 236.628 482.563 239.254 480.618C241.832 478.673 243.121 476.314 243.121 473.542C243.121 471.159 241.978 469.165 239.692 467.561C237.455 465.956 234.44 464.983 230.647 464.643C226.027 464.254 222.331 462.941 219.559 460.704C216.787 458.467 215.401 455.719 215.401 452.461C215.401 449.251 216.811 446.503 219.632 444.218C222.452 441.932 225.856 440.789 229.844 440.789C234.124 440.789 237.795 441.981 240.859 444.363C243.874 446.746 245.382 449.616 245.382 452.971H242.464C242.464 450.394 241.224 448.181 238.744 446.333C236.312 444.485 233.346 443.561 229.844 443.561C226.683 443.561 223.96 444.436 221.674 446.187C219.437 447.889 218.319 449.98 218.319 452.461C218.319 454.892 219.486 456.935 221.82 458.588C224.203 460.242 227.34 461.239 231.23 461.579C235.704 461.968 239.303 463.257 242.026 465.445C244.701 467.634 246.038 470.333 246.038 473.542C246.038 477.044 244.458 480.035 241.297 482.515C238.136 484.995 234.318 486.235 229.844 486.235Z" fill="white"/>
<path d="M254.256 485.141H251.338V441.883H254.256V485.141Z" fill="white"/>
<path d="M265.354 485.141H262.436V441.883H266.448L292.563 481.566V441.883H295.481V485.141H291.469L265.354 446.041V485.141Z" fill="white"/>
<path d="M321.585 486.235C315.944 486.235 311.105 484.022 307.069 479.597C303.081 475.171 301.087 469.822 301.087 463.549C301.087 457.275 303.081 451.901 307.069 447.427C311.105 443.002 315.944 440.789 321.585 440.789C325.865 440.789 329.634 442.053 332.892 444.582C336.15 447.063 338.12 450.224 338.801 454.065H335.883C335.348 451.05 333.719 448.546 330.995 446.552C328.321 444.558 325.184 443.561 321.585 443.561C316.722 443.561 312.588 445.506 309.184 449.397C305.731 453.336 304.005 458.053 304.005 463.549C304.005 469.044 305.731 473.761 309.184 477.7C312.588 481.591 316.722 483.536 321.585 483.536C325.719 483.536 329.245 481.956 332.163 478.794C335.08 475.682 336.539 471.889 336.539 467.415V466.321H321.585V463.549H338.801V485.141H336.539V476.241C335.47 479.256 333.549 481.664 330.777 483.463C328.053 485.311 324.989 486.235 321.585 486.235Z" fill="white"/>
<path d="M384.119 485.141H375.252V450.612H363.86V443.213H395.511V450.612H384.119V485.141Z" fill="white"/>
<path d="M435.155 485.141H426.288V467.054H409.669V485.141H400.802V443.213H409.669V459.655H426.288V443.213H435.155V485.141Z" fill="white"/>
<path d="M470.191 485.141L467.138 475.158H451.87L448.816 485.141H439.245L454.043 443.037H464.906L479.763 485.141H470.191ZM461.97 457.952C461.775 457.287 461.52 456.445 461.207 455.427C460.894 454.409 460.581 453.372 460.267 452.315C459.954 451.258 459.7 450.338 459.504 449.555C459.308 450.338 459.034 451.317 458.682 452.491C458.369 453.627 458.055 454.723 457.742 455.78C457.468 456.798 457.253 457.522 457.096 457.952L454.101 467.7H465.024L461.97 457.952Z" fill="white"/>
<path d="M483.899 485.141V443.213H492.766V477.801H509.796V485.141H483.899Z" fill="white"/>
<path d="M540.063 485.141H515.928V443.213H540.063V450.495H524.795V459.714H539.006V466.996H524.795V477.801H540.063V485.141Z" fill="white"/>
<path d="M572.335 473.514C572.335 475.98 571.728 478.133 570.514 479.973C569.301 481.813 567.539 483.242 565.229 484.26C562.959 485.239 560.179 485.728 556.891 485.728C555.442 485.728 554.013 485.63 552.604 485.434C551.234 485.239 549.903 484.965 548.611 484.612C547.358 484.221 546.164 483.751 545.029 483.203V474.923C547.025 475.784 549.081 476.587 551.195 477.331C553.348 478.035 555.482 478.388 557.596 478.388C559.044 478.388 560.199 478.192 561.06 477.801C561.961 477.409 562.607 476.881 562.998 476.215C563.429 475.55 563.644 474.786 563.644 473.925C563.644 472.868 563.272 471.967 562.528 471.224C561.824 470.48 560.864 469.795 559.651 469.168C558.437 468.503 557.047 467.798 555.482 467.054C554.503 466.585 553.446 466.037 552.311 465.41C551.175 464.745 550.079 463.942 549.022 463.003C548.004 462.024 547.163 460.849 546.497 459.479C545.831 458.109 545.499 456.465 545.499 454.547C545.499 452.041 546.066 449.907 547.202 448.146C548.376 446.345 550.02 444.975 552.134 444.035C554.287 443.096 556.813 442.626 559.71 442.626C561.902 442.626 563.977 442.88 565.934 443.389C567.931 443.898 570.005 444.622 572.159 445.562L569.281 452.491C567.363 451.708 565.64 451.101 564.114 450.671C562.587 450.24 561.021 450.025 559.416 450.025C558.32 450.025 557.38 450.201 556.597 450.553C555.814 450.906 555.207 451.395 554.777 452.021C554.385 452.648 554.19 453.392 554.19 454.253C554.19 455.232 554.483 456.073 555.07 456.778C555.658 457.443 556.539 458.089 557.713 458.716C558.887 459.342 560.355 460.086 562.117 460.947C564.27 461.965 566.091 463.022 567.578 464.118C569.105 465.214 570.28 466.506 571.102 467.994C571.924 469.482 572.335 471.322 572.335 473.514Z" fill="white"/>
<path d="M603.248 485.141H600.33V441.883H619.88C622.701 441.883 625.084 443.026 627.029 445.312C629.023 447.597 630.02 450.345 630.02 453.555C630.02 456.91 629.023 459.78 627.029 462.163C625.084 464.545 622.701 465.737 619.88 465.737H603.248V485.141ZM603.248 462.965H619.37C621.509 462.965 623.333 462.09 624.841 460.339C626.348 458.637 627.102 456.546 627.102 454.065C627.102 451.488 626.348 449.275 624.841 447.427C623.333 445.628 621.509 444.728 619.37 444.728H603.248V462.965Z" fill="white"/>
<path d="M637.972 485.141H635.055V441.883H655.699C658.665 441.883 661.194 443.002 663.285 445.239C665.376 447.427 666.422 450.102 666.422 453.263C666.422 456.035 665.79 458.442 664.525 460.485C663.212 462.527 661.583 463.719 659.638 464.059C661.437 464.545 662.896 466.077 664.015 468.655C665.133 471.232 665.692 474.345 665.692 477.992C665.692 480.035 665.741 481.566 665.838 482.588C665.936 483.804 666.13 484.655 666.422 485.141H663.504C663.018 484.557 662.701 483.487 662.556 481.931L662.337 475.731C662.337 472.813 661.632 470.308 660.221 468.217C658.86 466.175 657.182 465.153 655.188 465.153H637.972V485.141ZM637.972 462.454H655.188C657.474 462.454 659.443 461.579 661.097 459.828C662.702 458.126 663.504 456.035 663.504 453.555C663.504 451.123 662.702 449.032 661.097 447.281C659.443 445.579 657.474 444.728 655.188 444.728H637.972V462.454Z" fill="white"/>
<path d="M689.857 485.651C684.021 485.651 679.352 483.633 675.851 479.597C672.349 475.56 670.599 470.211 670.599 463.549C670.599 456.643 672.349 451.123 675.851 446.99C679.352 442.856 684.021 440.789 689.857 440.789C695.692 440.789 700.361 442.856 703.862 446.99C707.364 451.123 709.115 456.643 709.115 463.549C709.115 470.211 707.364 475.56 703.862 479.597C700.361 483.633 695.692 485.651 689.857 485.651ZM689.857 482.952C694.817 482.952 698.78 481.177 701.747 477.627C704.713 474.126 706.197 469.433 706.197 463.549C706.197 457.518 704.713 452.679 701.747 449.032C698.78 445.385 694.817 443.561 689.857 443.561C684.896 443.561 680.933 445.385 677.966 449.032C675 452.679 673.516 457.518 673.516 463.549C673.516 469.433 675 474.126 677.966 477.627C680.933 481.177 684.896 482.952 689.857 482.952Z" fill="white"/>
<path d="M728.289 485.141H725.371V444.728H710.563V441.883H743.243V444.728H728.289V485.141Z" fill="white"/>
<path d="M763.95 485.651C758.114 485.651 753.446 483.633 749.944 479.597C746.443 475.56 744.692 470.211 744.692 463.549C744.692 456.643 746.443 451.123 749.944 446.99C753.446 442.856 758.114 440.789 763.95 440.789C769.786 440.789 774.454 442.856 777.956 446.99C781.457 451.123 783.208 456.643 783.208 463.549C783.208 470.211 781.457 475.56 777.956 479.597C774.454 483.633 769.786 485.651 763.95 485.651ZM763.95 482.952C768.91 482.952 772.874 481.177 775.84 477.627C778.807 474.126 780.29 469.433 780.29 463.549C780.29 457.518 778.807 452.679 775.84 449.032C772.874 445.385 768.91 443.561 763.95 443.561C758.99 443.561 755.026 445.385 752.06 449.032C749.093 452.679 747.61 457.518 747.61 463.549C747.61 469.433 749.093 474.126 752.06 477.627C755.026 481.177 758.99 482.952 763.95 482.952Z" fill="white"/>
<path d="M806.395 486.235C800.899 486.235 796.231 484.022 792.389 479.597C788.498 475.171 786.553 469.822 786.553 463.549C786.553 457.275 788.498 451.901 792.389 447.427C796.231 443.002 800.899 440.789 806.395 440.789C810.917 440.789 814.735 442.005 817.847 444.436C820.96 446.819 822.881 450.029 823.61 454.065H820.692C820.157 451.05 818.528 448.546 815.805 446.552C813.13 444.558 809.993 443.561 806.395 443.561C801.726 443.561 797.738 445.506 794.431 449.397C791.125 453.336 789.471 458.053 789.471 463.549C789.471 469.044 791.125 473.761 794.431 477.7C797.738 481.591 801.726 483.536 806.395 483.536C810.383 483.536 813.665 482.369 816.243 480.035C818.869 477.7 820.352 474.588 820.692 470.697H823.61C823.221 475.415 821.446 479.184 818.285 482.004C815.173 484.825 811.209 486.235 806.395 486.235Z" fill="white"/>
<path d="M845.441 485.651C839.605 485.651 834.937 483.633 831.435 479.597C827.934 475.56 826.183 470.211 826.183 463.549C826.183 456.643 827.934 451.123 831.435 446.99C834.937 442.856 839.605 440.789 845.441 440.789C851.277 440.789 855.945 442.856 859.447 446.99C862.948 451.123 864.699 456.643 864.699 463.549C864.699 470.211 862.948 475.56 859.447 479.597C855.945 483.633 851.277 485.651 845.441 485.651ZM845.441 482.952C850.401 482.952 854.365 481.177 857.331 477.627C860.298 474.126 861.781 469.433 861.781 463.549C861.781 457.518 860.298 452.679 857.331 449.032C854.365 445.385 850.401 443.561 845.441 443.561C840.481 443.561 836.517 445.385 833.551 449.032C830.584 452.679 829.101 457.518 829.101 463.549C829.101 469.433 830.584 474.126 833.551 477.627C836.517 481.177 840.481 482.952 845.441 482.952Z" fill="white"/>
<path d="M870.524 485.141V441.883H873.442V482.369H896.713V485.141H870.524Z" fill="white"/>
</svg>
