<svg width="34" height="29" viewBox="0 0 34 29" fill="none" xmlns="http://www.w3.org/2000/svg">
<path fill-rule="evenodd" clip-rule="evenodd" d="M24.5004 0C23.6719 0 23.0004 0.671573 23.0004 1.5V24.1055L17.7135 18.8187C17.061 18.1662 16.0032 18.1662 15.3507 18.8187C14.6982 19.4711 14.6982 20.529 15.3507 21.1815L22.6614 28.4922C23.0627 28.8935 23.6174 29.048 24.1368 28.9556C24.2532 28.9846 24.375 29 24.5004 29C24.6353 29 24.766 28.9822 24.8904 28.9488C25.2996 28.9566 25.7112 28.8043 26.0235 28.4921L33.4904 21.0252C34.0997 20.4158 34.0997 19.4279 33.4904 18.8185C32.881 18.2092 31.8931 18.2092 31.2837 18.8185L26.0004 24.1019V1.5C26.0004 0.671573 25.3288 0 24.5004 0Z" fill="white"/>
<path fill-rule="evenodd" clip-rule="evenodd" d="M9.4469 29C10.2753 29 10.9469 28.3284 10.9469 27.5L10.9469 4.8945L16.2337 10.1813C16.8862 10.8338 17.9441 10.8338 18.5966 10.1813C19.2491 9.52885 19.2491 8.47097 18.5966 7.81849L11.2859 0.507793C10.8846 0.106462 10.3299 -0.0480202 9.81045 0.0443565C9.69405 0.01538 9.57227 -8.31711e-07 9.4469 -8.42671e-07C9.31201 -8.54464e-07 9.18127 0.0178061 9.05691 0.0511981C8.64771 0.0434294 8.23604 0.195672 7.92379 0.507926L0.456898 7.97481C-0.152453 8.58416 -0.152453 9.57212 0.456896 10.1815C1.06625 10.7908 2.0542 10.7908 2.66355 10.1815L7.9469 4.89811L7.9469 27.5C7.9469 28.3284 8.61847 29 9.4469 29Z" fill="white"/>
</svg>
