<svg width="28" height="23" viewBox="0 0 28 23" fill="none" xmlns="http://www.w3.org/2000/svg">
<path d="M27.5011 3.21654C26.4893 3.66314 25.4019 3.96391 24.2606 4.09949C25.4259 3.40566 26.3209 2.30625 26.7414 0.996079C25.6517 1.63863 24.4439 2.10574 23.1582 2.35752C22.1304 1.26723 20.6625 0.585938 19.0399 0.585938C15.3972 0.585938 12.7204 3.96505 13.5432 7.4729C8.85536 7.23935 4.69811 5.00635 1.91477 1.61243C0.43658 4.13366 1.14817 7.43189 3.65994 9.10207C2.73636 9.07245 1.86549 8.82067 1.10577 8.40028C1.0439 10.999 2.91741 13.4302 5.63086 13.9714C4.83676 14.1856 3.96704 14.2357 3.08242 14.0671C3.79974 16.2955 5.88295 17.9167 8.35347 17.9623C5.98149 19.8113 2.99304 20.6373 0 20.2864C2.49687 21.878 5.46356 22.8065 8.6491 22.8065C19.1247 22.8065 25.0432 14.0101 24.6857 6.12057C25.788 5.32877 26.7448 4.34101 27.5011 3.21654Z" fill="#715098"/>
</svg>
